<?xml version="1.0" encoding="UTF-8"?>
<svg id="_レイヤー_1" xmlns="http://www.w3.org/2000/svg" xmlns:xlink="http://www.w3.org/1999/xlink"
    viewBox="0 0 1687.29 1251.02">
    <defs>
        <style>
            .cls-1{mask:url(#mask);}.cls-2{fill:url(#_名称未設定グラデーション_113);}.cls-2,.cls-3,.cls-4,.cls-5{stroke-width:0px;}.cls-3{fill:url(#_名称未設定グラデーション_113-3);}.cls-4{fill:url(#_名称未設定グラデーション_113-2);}.cls-5{fill:#fff;}.cls-6{mask:url(#mask-2);}.cls-7{mask:url(#mask-1);}</style>
        <linearGradient id="_名称未設定グラデーション_113" x1="521.55" y1="741.78" x2="530.35" y2="573.4"
            gradientTransform="translate(-4.53 -1767.89) scale(1 3.81)"
            gradientUnits="userSpaceOnUse">
            <stop offset=".82" stop-color="#fff" />
            <stop offset=".87" stop-color="#231815" />
        </linearGradient>
        <mask id="mask" x="251.46" y="434.85" width="540.03" height="591" maskUnits="userSpaceOnUse">
            <rect class="cls-2" x="365.99" y="478.74" width="310.97" height="503.22"
                transform="translate(500.61 -166.82) rotate(34.19)" />
        </mask>
        <linearGradient id="_名称未設定グラデーション_113-2" x1="597.87" y1="741.98" x2="606.67" y2="573.59"
            gradientTransform="translate(-18.18 -1672.18) scale(1 3.72)"
            xlink:href="#_名称未設定グラデーション_113" />
        <mask id="mask-1" x="317.13" y="482.81" width="534.05" height="582.19"
            maskUnits="userSpaceOnUse">
            <rect class="cls-4" x="428.66" y="527.62" width="310.97" height="492.57"
                transform="translate(535.92 -194.51) rotate(34.19)" />
        </mask>
        <linearGradient id="_名称未設定グラデーション_113-3" x1="589.18" y1="731.56" x2="597.98" y2="563.18"
            gradientTransform="translate(5.13 -1670.36) scale(1 3.72)"
            xlink:href="#_名称未設定グラデーション_113" />
        <mask id="mask-2" x="331.74" y="445.84" width="534.05" height="582.19"
            maskUnits="userSpaceOnUse">
            <rect class="cls-3" x="443.28" y="490.65" width="310.97" height="492.57"
                transform="translate(517.67 -209.12) rotate(34.19)" />
        </mask>
    </defs>
    <g id="_ロゴ">
        <g id="_文字">
            <path class="cls-5"
                d="M0,1247.31v-226.9h132.84v23.1H27.23v74.67h97.36v23.52H27.23v81.68h105.61v23.93H0Z" />
            <path class="cls-5"
                d="M339.52,1020.41h30.94l-72.19,107.68,80.86,119.23h-35.07l-63.94-95.71-63.94,95.71h-33l81.69-118.81-73.02-108.09h33.42l57.76,84.98,56.52-84.98Z" />
            <path class="cls-5"
                d="M598.6,1029.07l-7.84,22.28c-9.9-3.3-18.64-5.7-26.2-7.22-7.57-1.51-16.71-2.27-27.43-2.27-21.45,0-38.23,3.3-50.33,9.9-12.65,7.43-22.35,18.09-29.08,31.97-6.74,13.89-10.11,30.32-10.11,49.3s3.85,34.59,11.55,48.47c7.7,13.89,18.15,24.69,31.35,32.38,14.58,7.98,31.49,11.96,50.74,11.96,15.95,0,33.69-3.71,53.22-11.14l6.6,21.45c-20.08,9.9-42.77,14.85-68.07,14.85-17.33,0-33.28-3.03-47.85-9.07-14.58-6.05-26.82-14.03-36.72-23.93-20.63-21.45-30.94-49.64-30.94-84.57,0-17.87,2.61-33.89,7.84-48.06,5.22-14.16,12.51-25.92,21.87-35.27,9.9-10.17,21.72-18.01,35.48-23.51,15.95-6.33,31.49-9.49,46.62-9.49s28.05.97,37.96,2.89c6.6,1.38,17.05,4.4,31.35,9.08Z" />
            <path class="cls-5"
                d="M665.43,1247.31v-226.9h132.84v23.1h-105.61v74.67h97.36v23.52h-97.36v81.68h105.61v23.93h-132.84Z" />
            <path class="cls-5" d="M880.78,1020.41h27.23v202.97h101.9v23.93h-129.13v-226.9Z" />
            <path class="cls-5" d="M1165.02,1020.41h26.82v226.9h-26.82v-226.9Z" />
            <path class="cls-5"
                d="M1368.2,1117.77c-5.09-5.78-13.96-8.66-26.61-8.66-13.48,0-28.05,3.71-43.73,11.14v127.07h-26.82v-158.42h18.56l5.78,13.2c18.98-10.45,37.54-15.68,55.69-15.68,16.77,0,29.56,4.75,38.37,14.23,8.8,9.49,13.2,22.63,13.2,39.4v107.26h-26.82v-100.66c0-13.47-2.55-23.1-7.63-28.88Z" />
            <path class="cls-5"
                d="M1476.28,1229.99c-13.34-14.03-20.01-33.69-20.01-59,0-23.65,6.87-44,20.63-61.06,13.75-15.4,34.24-23.1,61.47-23.1,13.47,0,26.95,2.89,40.43,8.66l-6.6,19.8c-9.63-4.12-20.49-6.19-32.59-6.19-18.71,0-32.74,4.89-42.08,14.65-9.35,9.76-14.03,23.86-14.03,42.29,0,23.66,5.64,40.02,16.91,49.09,11.28,9.08,25.17,13.62,41.67,13.62,10.45,0,20.48-1.79,30.12-5.36l6.19,18.57c-15.95,6.04-31.08,9.07-45.38,9.07-24.48,0-43.39-7.01-56.72-21.04Z" />
            <path class="cls-5"
                d="M1655.32,1243.6c-3.44-3.57-5.16-7.97-5.16-13.2s1.72-9.62,5.16-13.2c3.44-3.57,7.9-5.36,13.41-5.36s9.97,1.79,13.41,5.36c3.44,3.58,5.16,7.98,5.16,13.2s-1.72,9.63-5.16,13.2c-3.44,3.58-7.91,5.36-13.41,5.36s-9.97-1.78-13.41-5.36Z" />
        </g>
        <g id="_ロゴ-2">
            <path class="cls-5"
                d="M1339.5,188.45c-8.22-33.14-23.13-55.58-32.16-68.92-19.61-28.94-40.31-46.27-54.31-57.81-15.91-13.12-37.33-30.49-70.2-43.61-27.75-11.08-50.67-13.93-67.93-15.96-40.01-4.71-70.66-.42-80.08,1.05-26.76,4.17-46.04,11.15-59.91,16.26-17.25,6.35-60.08,23.58-106.39,60.58-14.21,11.35-23.42,20.31-39.96,36.4-15.72,15.29-38.61,37.71-64.14,70.5-18.63,23.93-31.06,43.6-37.01,53.35-14.05,23.02-21.35,38.82-23.31,43.11-3.9,8.55-8.8,19.39-13.28,33.61-2.57,8.16-9.55,31.8-11.02,63.55-.53,11.31-.97,36.82,5.96,68.53,2.9,13.26,6.22,28.45,14.86,46.72,14.87,31.4,35.81,51.48,47.48,61.27,28.54,23.94,56.76,32.58,77.2,38.84,9.59,2.94,28.26,8.03,52.48,10.31,17.85,1.68,33.43,1.34,45.82.38-30.88,27.3-57.21,48.84-75.97,63.76-11.76,9.36-36.53,28.84-129.66,96.41-26.82,19.46-49.14,35.52-64.68,46.68,41.98-12.17,77.4-24.61,104.95-35.09,27.33-10.39,69.31-26.49,121.73-53.39,34.53-17.72,59.18-32.73,82.98-47.29,61.67-37.72,105.93-70.57,120.81-81.76,33.69-25.34,65.63-49.53,104.34-86.95,35.88-34.68,59.29-63.05,69.86-76.27,14.67-18.34,31.12-39.08,48.6-69.57,24.92-43.46,31.57-71.23,33.09-77.85,4.97-21.77,5.51-38.76,5.6-45.06.36-25.1-3.91-44.26-5.77-51.75ZM1209.89,352.3c-1.09,9.07-3.67,16.33-6.73,23.41-6.03,13.96-12.63,24.26-17.13,30.91-7.5,11.1-19.95,28.05-38.43,46.98-7.83,8.02-16.62,16.96-29.92,27.02-12.45,9.41-22.05,14.67-28.23,18.02-7.44,4.03-13.47,6.77-20.54,8.95-5.57,1.72-11.25,2.93-17.76,3.07-8.08.17-11.94-1.43-14.01-2.51-1.37-.72-3.7-1.96-5.86-4.44-4.36-5.01-4.65-11.21-4.88-16.01-.05-1.04-.15-3.94.46-8.5,1.12-8.42,3.62-14.74,4.84-17.7,6.22-15.04,15.03-29.04,16.12-30.76,6.2-9.77,12.48-19.68,22.66-32.01,14.64-17.71,27.82-28.9,40.16-39.36,10.93-9.27,17.92-14.19,22.27-17.1,13.79-9.24,23.39-13.36,25.65-14.31,11.92-5.03,19.91-6.28,25-6.73,11.44-1,16.52,1.36,19.6,3.97,1.47,1.24,2.34,2.43,2.91,3.21,1.69,2.32,5.64,8.79,3.83,23.87Z" />
            <g class="cls-1">
                <path class="cls-5"
                    d="M286.19,867.27c16.07,0,32.13.01,48.2.02,11.47-7.76,27.92-18.92,47.68-32.39,50.38-34.37,76.14-51.96,103.72-71.77,19.31-13.87,41.27-29.68,69.92-51.9,29.09-22.56,54.87-43.81,77.19-62.92,23.68-20.28,48.67-42.63,74.58-67.13-7.8-6.56-15.6-13.12-23.4-19.68-16.84,16.02-30.95,28.92-40.66,37.67-113.45,102.32-217.83,173.71-316.34,240.64-17.79,12.08-32.26,21.74-40.89,27.47Z" />
            </g>
            <g class="cls-7">
                <path class="cls-5"
                    d="M380.97,867.29c15.52-.11,31.04-.21,46.57-.32,20.95-13.91,37.6-25.2,47.66-32.06,0,0,154.78-105.48,259.53-195.64,10.2-8.78,19.8-17.7,19.8-17.7,2.13-2.02,3.83-3.66,4.8-4.6-7.56-7.21-15.12-14.42-22.68-21.63-18.39,16.64-53.64,48.17-89.65,77.76-11.68,9.6-23.63,19.16-23.63,19.16-21.17,16.91-38.28,29.94-50.99,39.6-53.12,40.39-96.34,70.28-139.66,100.17-21.42,14.78-39.31,26.89-51.75,35.25Z" />
            </g>
            <g class="cls-6">
                <path class="cls-5"
                    d="M474.23,867.03c19.35.05,38.69.1,58.04.14,61.55-44.37,124.45-92.03,188.26-143.22,35.71-28.65,70.26-57.24,103.66-85.67-7.31-7.44-14.62-14.87-21.93-22.31-8.05,6.89-22.77,19.42-41.42,34.76-35.22,28.98-81.83,66.06-233.82,177.65-12.2,8.96-30.44,22.33-52.79,38.65Z" />
            </g>
        </g>
    </g>
</svg>