<?xml version="1.0" standalone="no"?>
<!DOCTYPE svg PUBLIC "-//W3C//DTD SVG 20010904//EN"
 "http://www.w3.org/TR/2001/REC-SVG-20010904/DTD/svg10.dtd">
<svg version="1.0" xmlns="http://www.w3.org/2000/svg"
 width="254.000000pt" height="254.000000pt" viewBox="0 0 254.000000 254.000000"
 preserveAspectRatio="xMidYMid meet">
<metadata>
Created by potrace 1.14, written by Peter Selinger 2001-2017
</metadata>
<g transform="translate(0.000000,254.000000) scale(0.100000,-0.100000)"
fill="#000000" stroke="none">
<path d="M1490 2187 c-99 -33 -157 -72 -251 -166 -88 -88 -161 -190 -194 -271
-24 -61 -28 -176 -8 -242 37 -127 132 -197 288 -215 28 -3 51 -7 53 -8 6 -5
-133 -116 -260 -208 -70 -50 -126 -93 -124 -94 2 -3 15 2 166 57 140 52 316
151 470 265 179 132 322 296 378 433 29 73 25 177 -11 248 -35 69 -118 149
-195 186 -56 28 -77 32 -156 35 -73 2 -104 -2 -156 -20z m333 -486 c17 -80
-157 -269 -240 -259 -61 7 -31 101 63 195 79 80 166 111 177 64z"/>
<path d="M965 1302 c-112 -102 -313 -256 -459 -351 -43 -28 -72 -51 -65 -52
44 -4 72 8 148 59 46 31 93 64 105 72 128 87 339 262 342 284 3 23 -42 15 -71
-12z"/>
<path d="M1049 1258 c-72 -68 -279 -225 -436 -332 -24 -16 -43 -29 -43 -30 0
-1 16 -1 36 0 40 2 101 40 289 181 127 94 118 88 170 132 38 33 70 72 47 57
-6 -3 -15 0 -19 9 -7 12 -15 10 -44 -17z"/>
<path d="M1135 1219 c-65 -54 -342 -264 -388 -294 -33 -21 -31 -24 14 -28 28
-2 47 7 109 52 128 94 266 203 337 268 24 21 24 21 3 28 -11 3 -18 11 -15 16
10 15 3 10 -60 -42z m70 13 c-3 -3 -11 0 -18 7 -9 10 -8 11 6 5 10 -3 15 -9
12 -12z"/>
<path d="M4 661 c-2 -2 -4 -80 -4 -173 l0 -168 95 0 c89 0 95 1 95 21 0 18 -6
20 -47 19 -27 -1 -62 -1 -80 -1 l-32 1 2 58 2 57 72 3 c64 3 73 5 73 22 0 17
-7 18 -65 16 -39 -2 -69 1 -74 8 -4 6 -8 32 -8 59 l-1 47 79 0 c69 0 79 2 79
18 0 16 -10 18 -91 18 -50 -1 -92 -3 -95 -5z"/>
<path d="M290 662 c0 -7 62 -105 71 -112 3 -3 11 -15 18 -28 11 -21 6 -32 -49
-113 -59 -86 -60 -89 -35 -89 21 0 34 13 71 70 25 39 49 68 54 65 5 -3 28 -35
52 -70 31 -49 48 -65 65 -65 13 0 23 2 23 5 0 3 -25 43 -55 89 -30 46 -55 86
-55 90 0 4 23 40 50 81 27 41 50 76 50 77 0 2 -9 4 -20 5 -15 1 -33 -16 -64
-63 -48 -71 -42 -72 -98 11 -22 34 -40 50 -55 51 -13 1 -23 -1 -23 -4z"/>
<path d="M728 656 c-74 -27 -114 -109 -97 -201 11 -59 34 -92 80 -116 46 -23
146 -26 175 -5 27 21 7 38 -32 27 -102 -29 -190 41 -181 145 9 95 53 130 157
122 43 -3 61 -1 64 9 12 31 -97 43 -166 19z"/>
<path d="M1000 492 l0 -173 99 2 c88 1 100 4 104 20 5 17 -2 19 -78 19 l-83 0
-1 60 0 60 75 0 c65 0 74 2 74 18 0 15 -9 18 -62 17 -35 0 -68 1 -75 3 -7 2
-12 25 -12 58 l0 54 85 0 c78 0 84 1 75 18 -8 14 -25 17 -105 17 l-96 0 0
-173z"/>
<path d="M1327 662 c-2 -6 -1 -314 2 -334 1 -5 44 -8 96 -8 88 0 95 2 95 20 0
17 -8 19 -77 22 l-77 3 0 149 c-1 134 -3 149 -18 152 -10 1 -19 -1 -21 -4z"/>
<path d="M1758 651 c-2 -9 -3 -86 -3 -171 1 -150 1 -155 22 -158 21 -3 21 -1
20 169 -2 152 -4 172 -19 175 -9 1 -18 -5 -20 -15z"/>
<path d="M1988 556 c-21 -8 -38 -10 -38 -5 0 14 -30 10 -31 -3 -1 -19 -1 -180
0 -203 1 -13 8 -21 20 -22 17 -1 19 6 18 93 0 52 2 97 6 100 11 11 82 15 97 5
11 -7 15 -33 15 -103 1 -85 3 -93 21 -93 17 0 19 8 20 80 2 98 -9 138 -42 154
-31 14 -40 13 -86 -3z"/>
<path d="M2277 555 c-21 -7 -45 -21 -53 -32 -38 -50 -32 -141 12 -181 22 -19
35 -22 83 -20 41 2 56 7 56 18 0 11 -10 14 -42 12 -58 -5 -93 29 -93 88 0 59
35 93 92 88 49 -3 63 17 23 32 -32 12 -31 12 -78 -5z"/>
<path d="M2500 365 c-16 -20 -5 -45 20 -45 14 0 20 7 20 24 0 28 -24 41 -40
21z"/>
</g>
</svg>
