<?xml version="1.0" standalone="no"?>
<!DOCTYPE svg PUBLIC "-//W3C//DTD SVG 20010904//EN"
 "http://www.w3.org/TR/2001/REC-SVG-20010904/DTD/svg10.dtd">
<svg version="1.0" xmlns="http://www.w3.org/2000/svg"
 width="100.000000pt" height="100.000000pt" viewBox="0 0 100.000000 100.000000"
 preserveAspectRatio="xMidYMid meet">
<metadata>
Created by potrace 1.14, written by Peter Selinger 2001-2017
</metadata>
<g transform="translate(0.000000,100.000000) scale(0.100000,-0.100000)"
fill="#000000" stroke="none">
<path d="M439 810 c-55 -10 -136 -49 -167 -83 l-23 -25 50 24 c107 51 227 52
325 2 58 -30 132 -103 162 -161 l26 -52 -5 38 c-13 85 -87 186 -167 227 -27
14 -151 45 -154 39 -1 -1 -22 -5 -47 -9z"/>
<path d="M332 674 c-91 -45 -142 -127 -142 -229 0 -37 7 -75 19 -100 20 -43
78 -107 114 -126 l22 -12 -22 24 c-57 62 -79 177 -49 260 43 121 186 193 309
155 39 -12 46 -12 37 -1 -49 59 -199 74 -288 29z"/>
<path d="M439 587 c-113 -59 -152 -215 -78 -316 75 -105 234 -117 334 -26 l40
36 -35 -20 c-134 -78 -300 16 -300 169 0 57 28 118 69 153 40 33 29 35 -30 4z"/>
<path d="M735 411 c-17 -25 -47 -53 -70 -65 -48 -25 -127 -27 -172 -4 -43 22
-42 6 2 -28 45 -34 105 -47 155 -34 47 13 106 76 115 124 11 54 3 56 -30 7z"/>
</g>
</svg>
